<svg xmlns="http://www.w3.org/2000/svg" xmlns:xlink="http://www.w3.org/1999/xlink" version="1.1" baseProfile="tiny" id="Layer_1" x="0px" y="0px" viewBox="0 0 637.7 637.8" xml:space="preserve">
<path d="M398,23.5C561.2,67.2,658,234.9,614.3,398c-43.8,163.2-211.4,260-374.6,216.3  C76.5,570.6-20.3,402.9,23.4,239.7S234.9-20.2,398,23.5z"/>
<path id="Fill-1" fill="#FFFFFF" d="M319.6,111.2c-27,0-53.3,5.1-78.2,15.2c-25.8,10.5-49,25.8-68.7,45.6  c-19.8,19.8-35.2,42.9-45.7,68.7c-10.1,24.9-15.2,51.2-15.2,78.1c0,27,5.1,53.3,15.2,78.1c10.5,25.8,25.8,48.9,45.7,68.7  c19.8,19.8,43,35.2,68.7,45.6c24.9,10.1,51.2,15.2,78.2,15.2c27,0,53.3-5.1,78.2-15.2c25.8-10.5,49-25.8,68.7-45.6  c19.8-19.8,35.2-42.9,45.7-68.7c10.1-24.9,15.2-51.2,15.2-78.1s-5.1-53.3-15.2-78.1c-10.5-25.8-25.8-48.9-45.7-68.7  c-19.8-19.8-43-35.2-68.7-45.6C372.8,116.3,346.5,111.2,319.6,111.2 M319.6,155.6c41.8,0,83.6,16,115.6,47.8  c63.8,63.8,63.8,167.2,0,231c-31.9,31.9-73.7,47.8-115.6,47.8s-83.6-16-115.6-47.8c-63.8-63.8-63.8-167.2,0-231  C235.9,171.5,277.7,155.6,319.6,155.6"/>
<path id="Fill-3" fill="#FFFFFF" d="M374.8,374.2c-28.8,28.8-74.7,30.4-105.4,4.7c-1.8-1.5-3.5-3-5.1-4.7  c-30.5-30.5-30.5-80,0-110.5c1.4-1.4,2.9-2.8,4.4-4.1c14.6-12.5,32.7-18.7,50.8-18.7c20,0,40.1,7.6,55.3,22.8  c5.4,5.4,9.9,11.5,13.4,17.9l34.6-28.3c-4.8-7.4-10.3-14.4-16.7-20.8c-23.1-23.1-53.8-35.8-86.4-35.8c-32.1,0-62.3,12.3-85.2,34.6  c-0.4,0.4-0.8,0.8-1.2,1.1c-23.1,23.1-35.8,53.7-35.8,86.4s12.7,63.3,35.8,86.4s53.8,35.8,86.4,35.8s63.4-12.7,86.4-35.8  c6.2-6.2,11.6-12.9,16.3-20L387.8,357C384.4,363.2,380.1,369,374.8,374.2"/>
<path id="Fill-5" fill="#FFFFFF" d="M363.7,294h-45.3v24.9h17l25.2,20.6h-41.9v30.8c-28.5,0-51.5-23-51.5-51.5s23.1-51.5,51.5-51.5  C338,267.5,354.9,278.2,363.7,294"/>
</svg>
